<?xml version="1.0" encoding="UTF-8"?>
<svg version="1.1" xmlns="http://www.w3.org/2000/svg" width="481" height="519">
<path d="M0 0 C1.03490067 -0.0159874 2.06980133 -0.03197479 3.13606262 -0.04844666 C4.24447006 -0.05380936 5.3528775 -0.05917206 6.49487305 -0.06469727 C7.6452153 -0.07372574 8.79555756 -0.08275421 9.98075867 -0.09205627 C12.41243898 -0.10654988 14.84415821 -0.11544329 17.27587891 -0.11914062 C20.98301417 -0.13102791 24.68847991 -0.18021846 28.39526367 -0.23071289 C30.76179204 -0.24017864 33.12833059 -0.24741295 35.49487305 -0.25219727 C36.59720779 -0.27172958 37.69954254 -0.2912619 38.83528137 -0.31138611 C47.14836905 -0.26300736 51.98895266 1.77920571 57.97143555 7.47436523 C58.79321289 8.4740332 58.79321289 8.4740332 59.6315918 9.49389648 C60.19749023 10.16807617 60.76338867 10.84225586 61.34643555 11.53686523 C63.97517227 14.98851085 63.81567477 17.38109038 63.80761719 21.68383789 C63.80776321 22.33761917 63.80790924 22.99140045 63.80805969 23.66499329 C63.80736215 25.82934875 63.79957719 27.99361852 63.79174805 30.15795898 C63.7898833 31.6572566 63.78845967 33.15655483 63.78746033 34.65585327 C63.78363959 38.60471271 63.77381307 42.55353545 63.76275635 46.50238037 C63.75253271 50.53079736 63.74796066 54.55922027 63.74291992 58.58764648 C63.73219042 66.49391334 63.7151193 74.40015035 63.6940918 82.30639648 C64.48621063 82.29529343 65.27832947 82.28419037 66.0944519 82.27275085 C73.59651582 82.17214332 81.09824799 82.09622769 88.60081291 82.04733562 C92.45707084 82.02135357 96.31276666 81.9861683 100.16870117 81.92919922 C103.89701912 81.87446668 107.62479991 81.8448905 111.35348892 81.83201027 C112.76876393 81.82284354 114.18401291 81.80494449 115.59905624 81.7777462 C124.41966898 81.61510608 131.29758965 82.19402835 138.6940918 87.30639648 C140.9128418 89.51733398 140.9128418 89.51733398 142.1940918 91.68139648 C142.6375293 92.39038086 143.0809668 93.09936523 143.5378418 93.82983398 C146.56677992 100.31749199 147.0124676 106.20175978 147.0300293 113.26342773 C147.0400145 114.67793465 147.0400145 114.67793465 147.05020142 116.12101746 C147.06028724 118.10865338 147.0650197 120.09632289 147.06469727 122.08398438 C147.06906364 125.09945439 147.10540813 128.11345113 147.14331055 131.12866211 C147.1491812 133.06941237 147.15314893 135.01016951 147.1550293 136.95092773 C147.16940033 137.83980179 147.18377136 138.72867584 147.19857788 139.64448547 C147.13581905 148.39102233 144.63160152 155.7765066 138.6940918 162.30639648 C130.20060777 168.36013911 122.12224874 169.13549649 111.9597168 168.89233398 C110.58683144 168.88110954 109.21392165 168.87258476 107.84100342 168.86660767 C104.26972228 168.84396292 100.69996242 168.78526268 97.12927246 168.71838379 C93.46879647 168.656425 89.80806873 168.62947982 86.1472168 168.59936523 C78.99556192 168.5354857 71.84492743 168.4334145 64.6940918 168.30639648 C64.70408455 169.44819115 64.70408455 169.44819115 64.71427917 170.61305237 C64.77453567 177.80704697 64.82013969 185.0009182 64.84952831 192.19509983 C64.86514554 195.89319743 64.8863109 199.59108548 64.92041016 203.2890625 C64.95314548 206.86171957 64.97097443 210.43417582 64.97872353 214.00697136 C64.98424175 215.36605933 64.99501733 216.72513703 65.01128197 218.08413887 C65.16190773 231.19824974 65.16190773 231.19824974 61.6940918 237.30639648 C61.30608398 237.99088867 60.91807617 238.67538086 60.51831055 239.38061523 C60.14319336 239.91299805 59.76807617 240.44538086 59.3815918 240.99389648 C59.01420898 241.53401367 58.64682617 242.07413086 58.26831055 242.63061523 C50.60124489 250.79233029 37.17048192 253.09698107 26.42456055 253.72827148 C17.11457981 253.99319674 8.59163229 253.20574451 -0.3059082 250.30639648 C-1.21985352 250.06663086 -2.13379883 249.82686523 -3.07543945 249.57983398 C-11.30513818 247.38685424 -15.92202592 243.57352442 -20.3059082 236.30639648 C-21.42408197 232.9518752 -21.4261669 230.44221384 -21.41943359 226.90722656 C-21.41957962 226.26305283 -21.41972565 225.61887909 -21.4198761 224.95518494 C-21.41918016 222.82873146 -21.41140268 220.70236588 -21.40356445 218.57592773 C-21.40169914 217.10047961 -21.40027577 215.62503087 -21.39927673 214.14958191 C-21.39546046 210.26814053 -21.38563777 206.38673664 -21.37457275 202.50531006 C-21.36433951 198.5438284 -21.35977501 194.58234068 -21.35473633 190.62084961 C-21.34401471 182.84934816 -21.32694896 175.07787757 -21.3059082 167.30639648 C-22.51287857 167.32638199 -22.51287857 167.32638199 -23.74423218 167.34677124 C-31.36400169 167.46748751 -38.98330119 167.55859144 -46.60378075 167.61726952 C-50.52069595 167.64845221 -54.43681461 167.69067995 -58.35327148 167.7590332 C-62.13996721 167.82470072 -65.92590171 167.86020051 -69.71312332 167.87565994 C-71.15076288 167.88666238 -72.58836541 167.90814657 -74.02567673 167.94077682 C-83.03312001 168.13694951 -90.26303391 167.48829451 -97.3059082 161.30639648 C-99.30536032 158.75820542 -100.89581939 156.21839385 -102.3059082 153.30639648 C-102.6359082 152.64639648 -102.9659082 151.98639648 -103.3059082 151.30639648 C-103.42137457 149.69531666 -103.47542032 148.07964297 -103.4987793 146.46459961 C-103.51484222 145.45594849 -103.53090515 144.44729736 -103.54745483 143.40808105 C-103.59201945 138.76807321 -103.63301625 134.12820941 -103.65600586 129.48803711 C-103.6725112 127.04783556 -103.69972861 124.60768127 -103.73803711 122.16772461 C-103.79311572 118.64077785 -103.81473354 115.11496686 -103.8293457 111.58764648 C-103.85201508 110.50809692 -103.87468445 109.42854736 -103.89804077 108.31628418 C-103.87483834 99.89945867 -101.94244152 92.94292981 -95.8684082 86.86889648 C-90.59426107 83.65295311 -86.8281188 81.92983206 -80.56616211 81.96582031 C-79.92155029 81.96538223 -79.27693848 81.96494415 -78.61279297 81.9644928 C-76.50236706 81.96656693 -74.39275617 81.98983072 -72.2824707 82.01342773 C-70.81131423 82.01902863 -69.34015213 82.0232964 -67.86898804 82.02629089 C-64.01210868 82.03770091 -60.15557261 82.06713436 -56.29882812 82.10040283 C-52.35722496 82.13118708 -48.41556589 82.14481401 -44.47387695 82.15991211 C-36.75106485 82.1920083 -29.02853477 82.24315739 -21.3059082 82.30639648 C-21.31479065 81.49508774 -21.3236731 80.68377899 -21.33282471 79.84788513 C-21.41314263 72.18298798 -21.47395947 64.51829635 -21.51315689 56.85308743 C-21.53398659 52.91277985 -21.5622186 48.97282148 -21.60766602 45.03271484 C-21.65129032 41.22662511 -21.67508001 37.42087019 -21.68541718 33.61454964 C-21.69277899 32.16612545 -21.70715493 30.71771853 -21.72882843 29.26943779 C-21.85989498 20.14408214 -21.45463046 14.40180704 -15.55981445 7.16186523 C-15.00165039 6.61143555 -14.44348633 6.06100586 -13.8684082 5.49389648 C-13.31282227 4.93057617 -12.75723633 4.36725586 -12.18481445 3.78686523 C-8.42104651 0.82123519 -4.71332054 0.05533314 0 0 Z " fill="#6EC6BA" transform="translate(219.305908203125,79.693603515625)"/>
<path d="M0 0 C1.20805298 -0.01260864 2.41610596 -0.02521729 3.6607666 -0.03820801 C4.96187378 -0.03011108 6.26298096 -0.02201416 7.60351562 -0.01367188 C8.95585407 -0.01636772 10.30819063 -0.02025091 11.66052246 -0.02526855 C14.49180597 -0.03115946 17.32258395 -0.0226148 20.15380859 -0.00390625 C23.77903226 0.0188843 27.40307143 0.00575886 31.02825165 -0.01819611 C33.8198943 -0.03266583 36.61125714 -0.02804299 39.40290833 -0.01768494 C41.38820161 -0.01372732 43.37350586 -0.02585354 45.35876465 -0.03820801 C47.17084412 -0.01929504 47.17084412 -0.01929504 49.01953125 0 C50.08224243 0.00318237 51.14495361 0.00636475 52.23986816 0.00964355 C55.71294049 0.64652399 56.89764203 1.73040906 59.00976562 4.51757812 C59.5677866 8.42372495 59.5936938 10.56869484 57.50976562 13.95507812 C53.9165193 16.20085708 51.2148669 15.62441505 47.00976562 15.51757812 C47.0134528 16.1628842 47.01713997 16.80819027 47.02093887 17.47305107 C47.1094485 33.20722984 47.17555206 48.94132147 47.21701431 64.67568779 C47.23760041 72.28485963 47.26564484 79.89386483 47.31152344 87.50292969 C47.35151289 94.13845694 47.37722714 100.77386345 47.3861196 107.40950787 C47.39131402 110.91995585 47.40343887 114.43005853 47.43268585 117.94039536 C47.46514406 121.86836755 47.46571729 125.79600834 47.46386719 129.72412109 C47.47824829 130.87571213 47.49262939 132.02730316 47.50744629 133.21379089 C47.47459306 139.68055114 46.64015352 144.61526428 43.86880112 150.48687935 C42.81496607 152.61058346 42.81496607 152.61058346 43.00976562 155.51757812 C36.51974384 158.10533431 30.84812941 158.98796667 23.88476562 158.89257812 C23.03011719 158.90417969 22.17546875 158.91578125 21.29492188 158.92773438 C15.80720959 158.90244538 11.80277504 158.26889002 7.00976562 155.51757812 C2.07806713 147.22338996 1.5803578 138.2233647 1.66918945 128.81591797 C1.66853233 126.97030273 1.66853233 126.97030273 1.66786194 125.08740234 C1.66958223 121.74490237 1.68452873 118.40297235 1.70558381 115.0605731 C1.7244584 111.55591258 1.72610948 108.05124281 1.72966003 104.54653931 C1.73894908 97.92401441 1.7635198 91.30163976 1.7937085 84.67918074 C1.82735093 77.13376906 1.84376315 69.58834985 1.85879481 62.04288173 C1.89007257 46.53436047 1.94277121 31.02598874 2.00976562 15.51757812 C0.10710937 15.56591797 0.10710937 15.56591797 -1.83398438 15.61523438 C-4.91024389 15.69339137 -5.78475484 15.64600283 -8.49023438 13.95507812 C-10.57416255 10.56869484 -10.54825535 8.42372495 -9.99023438 4.51757812 C-6.99567508 0.56594241 -4.86415548 0.0145661 0 0 Z " fill="#FAFCFC" transform="translate(216.990234375,174.482421875)"/>
<path d="M0 0 C1.74471493 -0.02547993 3.48953868 -0.04357179 5.234375 -0.05859375 C6.69182129 -0.07490845 6.69182129 -0.07490845 8.17871094 -0.09155273 C10.69773789 -0.00980861 12.8234205 0.2989993 15.25 0.9375 C19.40602266 2.00760515 23.52695809 2.3212399 27.796875 2.56640625 C28.83787354 2.63075867 28.83787354 2.63075867 29.89990234 2.69641113 C31.59972927 2.80100461 33.29983985 2.9009706 35 3 C35.06971429 10.44130253 35.12291946 17.88253386 35.15543652 25.32409763 C35.17104837 28.78006646 35.19220356 32.23581075 35.22631836 35.69165039 C35.26534939 39.67070772 35.27974632 43.64967622 35.29296875 47.62890625 C35.30845261 48.86145645 35.32393646 50.09400665 35.33988953 51.36390686 C35.34135206 58.85541606 35.01779136 64.25377625 30.1875 70.25 C25.20088942 74.23928846 20.87309565 75.67556473 14.53515625 75.484375 C8.96827778 74.42074953 5.23734708 70.75623457 2.0625 66.25 C1.711875 65.5075 1.36125 64.765 1 64 C0.67 63.34 0.34 62.68 0 62 C-0.0913666 60.02893455 -0.11751968 58.05472084 -0.11352539 56.08154297 C-0.11344986 54.84040741 -0.11337433 53.59927185 -0.11329651 52.32052612 C-0.1081895 50.96107951 -0.1029735 49.60163331 -0.09765625 48.2421875 C-0.09579142 46.85499116 -0.09436782 45.46779416 -0.09336853 44.08059692 C-0.08954848 40.42765488 -0.07972255 36.77475252 -0.06866455 33.12182617 C-0.05843944 29.39502499 -0.05386855 25.66821741 -0.04882812 21.94140625 C-0.03809983 14.62758606 -0.02102954 7.31379859 0 0 Z " fill="#028182" transform="translate(224,256)"/>
<path d="M0 0 C0.33 0 0.66 0 1 0 C1.00257813 0.70125 1.00515625 1.4025 1.0078125 2.125 C1.2241308 7.43200897 1.49739151 10.97730509 5.0625 15.0625 C8.32079688 18.87824044 8.77390404 21.7678093 8.46875 26.7265625 C7.79905524 29.97458208 6.42564581 31.78838176 4 34 C0.80766515 35.59616743 -2.53461497 35.51466114 -6 35 C-9.02653006 32.67189996 -10.76708013 30.64518085 -11.30859375 26.8203125 C-11.76679917 17.23965375 -8.14538765 9.65380776 -2.1875 2.25 C-1.1046875 1.13625 -1.1046875 1.13625 0 0 Z " fill="#098485" transform="translate(244,211)"/>
<path d="M0 0 C2.625 0.375 2.625 0.375 5 1 C5.042721 2.66611905 5.04063832 4.33382885 5 6 C4 7 4 7 1.4375 7.0625 C0.2309375 7.0315625 0.2309375 7.0315625 -1 7 C-1.625 4.625 -1.625 4.625 -2 2 C-1.34 1.34 -0.68 0.68 0 0 Z " fill="#F1F9F8" transform="translate(236,157)"/>
<path d="M0 0 C1.67542976 0.28604898 3.34385343 0.61781233 5 1 C4.67 2.65 4.34 4.3 4 6 C2.125 6.625 2.125 6.625 0 7 C-0.66 6.34 -1.32 5.68 -2 5 C-1.46428571 1.46428571 -1.46428571 1.46428571 0 0 Z " fill="#0B8586" transform="translate(245,196)"/>
<path d="M0 0 C2.0625 0.4375 2.0625 0.4375 4 1 C4.625 2.875 4.625 2.875 5 5 C4.34 5.66 3.68 6.32 3 7 C0.375 6.625 0.375 6.625 -2 6 C-1.125 1.125 -1.125 1.125 0 0 Z " fill="#F1F9F8" transform="translate(245,137)"/>
<path d="M0 0 C1.32 0 2.64 0 4 0 C3.67 1.32 3.34 2.64 3 4 C1.68 3.67 0.36 3.34 -1 3 C-0.67 2.01 -0.34 1.02 0 0 Z " fill="#F0F9F7" transform="translate(251,130)"/>
</svg>
